HIERARCHY
ROOT Hips
{
	OFFSET 0.000000 0.000000 0.000000
	CHANNELS 6 Xposition Yposition Zposition Zrotation Yrotation Xrotation 
	JOINT LHipJoint
	{
		OFFSET 0.000000 0.000000 0.000000
		CHANNELS 3 Zrotation Yrotation Xrotation
		JOINT LeftUpLeg
		{
			OFFSET 1.363060 -1.794630 0.839290
			CHANNELS 3 Zrotation Yrotation Xrotation
			JOINT LeftLeg
			{
				OFFSET 2.448110 -6.726130 0.000000
				CHANNELS 3 Zrotation Yrotation Xrotation
				JOINT LeftFoot
				{
					OFFSET 2.562200 -7.039590 0.000000
					CHANNELS 3 Zrotation Yrotation Xrotation
					JOINT LeftToeBase
					{
						OFFSET 0.157640 -0.433110 2.322550
						CHANNELS 3 Zrotation Yrotation Xrotation
						End Site
						{
							OFFSET 0.000000 0.000000 0.000000
						}
					}
				}
			}
		}
	}
	JOINT RHipJoint
	{
		OFFSET 0.000000 0.000000 0.000000
		CHANNELS 3 Zrotation Yrotation Xrotation
		JOINT RightUpLeg
		{
			OFFSET -1.305520 -1.794630 0.839290
			CHANNELS 3 Zrotation Yrotation Xrotation
			JOINT RightLeg
			{
				OFFSET -2.542530 -6.985550 0.000000
				CHANNELS 3 Zrotation Yrotation Xrotation
				JOINT RightFoot
				{
					OFFSET -2.568260 -7.056230 0.000000
					CHANNELS 3 Zrotation Yrotation Xrotation
					JOINT RightToeBase
					{
						OFFSET -0.164730 -0.452590 2.363150
						CHANNELS 3 Zrotation Yrotation Xrotation
						End Site
						{
							OFFSET 0.000000 0.000000 0.000000
						}
					}
				}
			}
		}
	}
	JOINT LowerBack
	{
		OFFSET 0.000000 0.000000 0.000000
		CHANNELS 3 Zrotation Yrotation Xrotation
		JOINT Spine
		{
			OFFSET 0.028270 2.035590 -0.193380
			CHANNELS 3 Zrotation Yrotation Xrotation
			JOINT Spine1
			{
				OFFSET 0.056720 2.048850 -0.042750
				CHANNELS 3 Zrotation Yrotation Xrotation
				JOINT Neck
				{
					OFFSET 0.000000 0.000000 0.000000
					CHANNELS 3 Zrotation Yrotation Xrotation
					JOINT Neck1
					{
						OFFSET -0.054170 1.746240 0.172020
						CHANNELS 3 Zrotation Yrotation Xrotation
						JOINT Head
						{
							OFFSET 0.104070 1.761360 -0.123970
							CHANNELS 3 Zrotation Yrotation Xrotation
							End Site
							{
								OFFSET 0.000000 0.000000 0.000000
							}
						}
					}
				}
				JOINT LeftShoulder
				{
					OFFSET 0.000000 0.000000 0.000000
					CHANNELS 3 Zrotation Yrotation Xrotation
					JOINT LeftArm
					{
						OFFSET 3.362410 1.200890 -0.311210
						CHANNELS 3 Zrotation Yrotation Xrotation
						JOINT LeftForeArm
						{
							OFFSET 4.983000 -0.000000 -0.000000
							CHANNELS 3 Zrotation Yrotation Xrotation
							JOINT LeftHand
							{
								OFFSET 3.483560 -0.000000 -0.000000
								CHANNELS 3 Zrotation Yrotation Xrotation
								JOINT LeftFingerBase
								{
									OFFSET 0.000000 0.000000 0.000000
									CHANNELS 3 Zrotation Yrotation Xrotation
									JOINT LeftHandIndex1
									{
										OFFSET 0.715260 -0.000000 -0.000000
										CHANNELS 3 Zrotation Yrotation Xrotation
										End Site
										{
											OFFSET 0.000000 0.000000 0.000000
										}
									}
								}
								JOINT LThumb
								{
									OFFSET 0.000000 0.000000 0.000000
									CHANNELS 3 Zrotation Yrotation Xrotation
									End Site
									{
										OFFSET 0.000000 0.000000 0.000000
									}
								}
							}
						}
					}
				}
				JOINT RightShoulder
				{
					OFFSET 0.000000 0.000000 0.000000
					CHANNELS 3 Zrotation Yrotation Xrotation
					JOINT RightArm
					{
						OFFSET -3.136600 1.374050 -0.404650
						CHANNELS 3 Zrotation Yrotation Xrotation
						JOINT RightForeArm
						{
							OFFSET -5.241900 -0.000000 -0.000000
							CHANNELS 3 Zrotation Yrotation Xrotation
							JOINT RightHand
							{
								OFFSET -3.444170 -0.000000 -0.000000
								CHANNELS 3 Zrotation Yrotation Xrotation
								JOINT RightFingerBase
								{
									OFFSET 0.000000 0.000000 0.000000
									CHANNELS 3 Zrotation Yrotation Xrotation
									JOINT RightHandIndex1
									{
										OFFSET -0.622530 -0.000000 -0.000000
										CHANNELS 3 Zrotation Yrotation Xrotation
										End Site
										{
											OFFSET 0.000000 0.000000 0.000000
										}
									}
								}
								JOINT RThumb
								{
									OFFSET 0.000000 0.000000 0.000000
									CHANNELS 3 Zrotation Yrotation Xrotation
									End Site
									{
										OFFSET 0.000000 0.000000 0.000000
									}
								}
							}
						}
					}
				}
			}
		}
	}
}
MOTION
Frames: 10
Frame Time: 0.008333
3.886708 16.860964 -3.619395 -1.673091 -37.332664 22.501855 1.778300 0.272387 -0.594585 -12.612637 -8.878380 -54.649018 3.837956 14.436045 40.859493 0.059778 1.044001 3.046322 0.244100 -3.179100 -8.777700 -2.271974 -0.837279 -0.041618 8.140252 12.239505 -56.335516 -4.571270 -14.389396 42.058726 0.747281 -7.696958 -12.081831 -0.000500 -0.141300 0.388300 -1.526812 2.390898 28.711126 1.521141 2.405761 7.993622 2.856998 1.321891 -3.656173 -9.528993 -3.505684 -13.053844 5.808902 -3.355404 15.326717 3.563100 -1.964200 10.274300 -9.726186 -0.943560 -1.419597 -69.047735 -13.830801 55.385403 46.013764 -51.881699 -25.495583 0.362998 -1.083059 -13.352090 21.168940 18.970611 7.579900 -7.125000 0.000000 0.000000 -7.482700 51.347400 -1.175500 8.071433 2.195042 -0.791441 68.376179 15.687449 38.910144 -60.402512 52.649168 -36.446003 0.404802 0.474795 20.333090 -12.686230 -8.949542 2.174600 7.125000 0.000000 0.000000 12.223000 -39.475800 1.693400 
3.927471 16.862967 -3.634619 -1.601521 -37.465083 22.192458 1.750358 0.283171 -0.581329 -12.786221 -8.848733 -54.427503 3.810931 14.394277 40.755066 0.054502 1.080446 3.171276 0.320900 -3.641200 -10.069300 -2.276682 -0.852625 -0.028691 8.296359 11.920379 -56.224617 -4.846610 -14.653571 43.120110 0.717551 -7.509107 -11.956631 -0.002300 -0.308500 0.847500 -2.222413 1.957893 28.223010 1.811524 1.729511 7.869745 3.856858 0.974787 -3.520512 -10.770730 -2.987280 -13.013254 5.733573 -2.323093 15.464081 3.885600 -1.629100 10.232400 -9.730910 -0.938124 -1.438048 -70.161724 -13.986225 53.015147 45.024153 -51.436176 -24.722764 0.383453 -1.094024 -15.293165 20.157763 20.156643 7.598200 -7.125000 0.000000 0.000000 -8.868500 52.408300 -1.627500 8.088393 2.209349 -0.795016 67.928667 16.748902 39.838203 -59.574012 52.394400 -35.674062 0.405743 0.510775 19.010768 -12.530405 -9.544175 2.286700 7.125000 0.000000 0.000000 12.488900 -40.086300 1.540400 
3.964829 16.880394 -3.634819 -1.749725 -37.846563 21.752066 1.702090 0.296606 -0.570609 -12.892100 -8.551520 -53.816421 3.774718 14.321198 40.591461 0.019561 1.291355 3.193637 0.359700 -3.852800 -10.662800 -2.241402 -0.875996 -0.008005 8.613834 11.742225 -55.719176 -5.146593 -14.905789 44.239758 0.629051 -6.923847 -11.548377 -0.001800 -0.276300 0.759200 -2.282080 2.005243 27.963949 1.774081 1.768953 7.893607 3.824308 0.990055 -3.377258 -10.860463 -2.932107 -13.096827 5.606470 -2.209741 15.484928 3.871900 -1.600300 10.238600 -9.732059 -0.971467 -1.424680 -70.494307 -14.908261 52.324152 43.815843 -50.856164 -23.745826 0.398666 -1.107700 -17.099403 19.504406 21.271961 7.707300 -7.125000 0.000000 0.000000 -9.922200 53.446600 -2.077200 8.095775 2.223228 -0.782000 68.115748 17.653949 39.291062 -58.615397 52.082778 -34.789543 0.434834 0.499568 17.839444 -13.361863 -9.474114 2.431100 7.125000 0.000000 0.000000 11.721400 -40.081800 1.443900 
4.000184 16.887706 -3.651344 -1.830324 -38.038433 21.389388 1.668740 0.307284 -0.561269 -12.968542 -8.348048 -53.402860 3.729112 14.249468 40.398966 0.001356 1.413133 3.356205 0.341800 -3.756900 -10.393800 -2.222063 -0.897671 0.012445 8.902725 11.507443 -55.387350 -5.474404 -15.179794 45.449807 0.520112 -6.243087 -11.196103 -0.000300 -0.118900 0.326700 -2.403932 1.951085 27.718868 1.765717 1.673318 7.838531 3.915361 0.943585 -3.327296 -10.996505 -2.822675 -13.024623 5.481240 -2.022127 15.360162 3.876800 -1.541800 10.160100 -9.735708 -1.007733 -1.415354 -70.750449 -15.873805 51.655192 42.592912 -50.239075 -22.755480 0.404561 -1.124097 -18.811519 19.491178 22.305458 8.051100 -7.125000 0.000000 0.000000 -10.329300 54.515200 -2.434400 8.101287 2.242092 -0.767027 68.373817 18.617718 39.032580 -57.493812 51.711439 -33.744684 0.479488 0.458280 16.377528 -14.870221 -8.861152 2.552200 7.125000 0.000000 0.000000 10.236700 -39.555700 1.390400 
4.034236 16.897321 -3.666368 -1.826956 -38.193466 20.945850 1.629603 0.314369 -0.552787 -13.101684 -8.218592 -52.900835 3.674684 14.159404 40.165722 -0.026499 1.586920 3.506792 0.350400 -3.803500 -10.524400 -2.194109 -0.925319 0.034934 9.147312 11.204705 -54.991406 -5.819343 -15.456720 46.699829 0.417539 -5.562733 -10.772437 -0.000700 0.170400 -0.468200 -1.967885 2.292478 27.556402 1.364425 2.169464 7.812109 2.991887 1.214588 -3.348263 -9.709313 -3.151297 -12.932004 5.247914 -2.801371 15.122766 3.478400 -1.798600 10.101700 -9.733549 -1.085337 -1.378014 -70.093754 -17.398463 52.684825 41.502723 -49.657211 -21.857746 0.421595 -1.144213 -21.108287 19.329221 23.578268 8.402400 -7.125000 0.000000 0.000000 -11.031600 55.796000 -2.948000 8.087659 2.248849 -0.732660 69.381051 19.232070 37.248475 -56.606767 51.386995 -32.938501 0.531826 0.432253 14.813683 -16.311657 -8.681533 2.760600 7.125000 0.000000 0.000000 8.900300 -39.468600 1.224500 
4.067488 16.912845 -3.676583 -1.812061 -38.366075 20.446222 1.576141 0.326486 -0.537837 -13.264224 -8.072680 -52.321671 3.616630 14.061514 39.918928 -0.050110 1.728064 3.619427 0.363900 -3.875000 -10.725200 -2.165627 -0.952542 0.058141 9.400474 10.885875 -54.505764 -6.199605 -15.744622 48.056242 0.294229 -4.798680 -10.496074 -0.001500 0.247800 -0.680800 -1.908467 2.417743 27.414018 1.250931 2.331827 7.765974 2.764446 1.304957 -3.366553 -9.260961 -3.173077 -12.862944 4.933573 -2.929750 14.891921 3.279700 -1.849400 10.000900 -9.733818 -1.143987 -1.356489 -70.175914 -18.513426 52.643395 40.394870 -49.050501 -20.974735 0.443916 -1.161610 -22.776814 18.820305 24.908927 8.584600 -7.125000 0.000000 0.000000 -12.207600 57.045600 -3.639800 8.087742 2.251169 -0.711882 69.691245 20.041460 36.575189 -55.690218 51.049670 -32.101656 0.579414 0.424549 13.319369 -17.521485 -8.796040 3.018100 7.125000 0.000000 0.000000 7.822800 -39.678700 1.033300 
4.100038 16.923361 -3.703225 -1.874516 -38.348684 20.168236 1.545905 0.331466 -0.530144 -13.301388 -7.965967 -51.987806 3.545559 13.965788 39.626449 -0.057485 1.788000 3.778323 0.324600 -3.661900 -10.127300 -2.150523 -0.979195 0.082277 9.788305 10.505168 -54.210587 -6.594814 -16.037084 49.453396 0.195656 -4.193269 -10.328123 -0.001800 0.274400 -0.753900 -1.855023 2.327584 27.112718 1.195456 2.229178 7.691349 2.698852 1.268179 -3.315589 -8.887033 -3.016535 -12.870726 4.468798 -2.780919 14.661062 3.081000 -1.799500 9.887100 -9.733059 -1.209512 -1.341472 -70.299325 -19.474824 52.129593 39.370188 -48.462119 -20.150485 0.434663 -1.188142 -24.023618 19.920506 26.003675 9.493700 -7.125000 0.000000 0.000000 -11.583800 58.409300 -3.832200 8.091226 2.239215 -0.692230 69.940374 21.061247 36.472918 -54.784159 50.707810 -31.267607 0.611338 0.398289 12.117614 -18.509890 -8.397890 3.059300 7.125000 0.000000 0.000000 6.861900 -39.314600 0.966700 
4.131887 16.920156 -3.750498 -1.935976 -37.985575 20.319718 1.562420 0.323502 -0.536239 -13.182146 -8.164502 -52.189963 3.466621 13.894196 39.312519 -0.057817 1.844306 4.067190 0.286600 -3.443000 -9.514600 -2.170885 -0.997574 0.100480 10.181703 10.096611 -54.415107 -7.007973 -16.352017 50.904632 0.167625 -4.027791 -10.302324 -0.008100 0.581400 -1.597500 -1.871988 2.141127 26.581913 1.262246 2.012753 7.448036 2.872152 1.178855 -3.354948 -8.743036 -2.896839 -12.880032 4.212565 -2.634864 14.440253 2.989500 -1.747000 9.791400 -9.727883 -1.252435 -1.334975 -70.540309 -20.303658 51.832051 38.497819 -47.940000 -19.436109 0.399099 -1.220904 -25.726286 22.566783 26.599151 11.112500 -7.125000 0.000000 0.000000 -8.923200 59.654600 -3.208200 8.093496 2.242168 -0.678151 70.035743 21.891876 36.542188 -54.150759 50.459945 -30.682148 0.635041 0.370697 10.939884 -19.372141 -7.815258 2.995800 7.125000 0.000000 0.000000 5.999500 -38.735500 0.929800 
4.159530 16.933677 -3.781045 -1.966567 -37.892108 19.959011 1.515872 0.335462 -0.521900 -13.170342 -8.171351 -51.712854 3.379654 13.772038 38.940713 -0.080866 2.015124 4.330877 0.281600 -3.413200 -9.431200 -2.139923 -1.021197 0.124014 10.589943 9.723407 -53.920297 -7.403070 -16.607298 52.256474 0.158409 -3.998722 -10.400316 -0.030100 1.119500 -3.077700 -1.925770 2.059673 26.406627 1.275318 1.904993 7.377328 2.949190 1.124008 -3.353907 -9.005904 -2.938434 -12.919792 4.483358 -2.628756 14.225773 3.123000 -1.731500 9.739500 -9.722989 -1.254653 -1.333706 -70.736131 -21.222999 51.635872 37.794479 -47.509487 -18.878426 0.411982 -1.248138 -27.724372 23.287656 28.031574 12.051300 -7.125000 0.000000 0.000000 -8.870200 61.317100 -3.540100 8.093706 2.282819 -0.647447 70.186108 22.784269 36.574815 -53.632874 50.242736 -30.201984 0.671171 0.357493 10.083468 -20.342627 -7.762338 3.136000 7.125000 0.000000 0.000000 5.119100 -38.736700 0.792200 
4.185270 16.948900 -3.817101 -2.002725 -37.823296 19.646369 1.472377 0.345525 -0.509167 -13.148877 -8.131458 -51.272919 3.277212 13.634026 38.508714 -0.087291 2.104607 4.703167 0.266600 -3.321400 -9.174700 -2.107108 -1.043091 0.147444 11.030763 9.368707 -53.426832 -7.783554 -16.839583 53.546649 0.126657 -3.961964 -10.844692 -0.030400 1.124800 -3.092300 -2.067582 1.920885 26.155338 1.302959 1.705156 7.313343 3.123998 1.021449 -3.296432 -9.402683 -2.908007 -12.938229 4.690425 -2.486990 13.990976 3.276700 -1.673300 9.665900 -9.719336 -1.256570 -1.337036 -70.982248 -22.060714 50.917342 37.141057 -47.096962 -18.362132 0.413061 -1.281562 -29.131033 24.484276 29.665597 13.375800 -7.125000 0.000000 0.000000 -8.438000 63.319100 -3.764400 8.093759 2.316850 -0.613893 70.523513 23.782150 36.898028 -53.024558 49.989894 -29.635745 0.708143 0.327326 9.774292 -21.406139 -7.570121 3.230500 7.125000 0.000000 0.000000 4.142000 -38.582400 0.656100 
